<svg width="1920" height="1080" viewBox="0 0 680 382" xmlns="http://www.w3.org/2000/svg">
  <rect width="680" height="382" fill="#F8F9FC"/>
  <rect x="0" y="0" width="680" height="4" fill="#534AB7"/>
  <rect x="0" y="0" width="6" height="382" fill="#534AB7"/>
  <g transform="translate(52,28)">
    <rect x="0" y="0" width="66" height="66" rx="12" fill="#534AB7"/>
    <text x="33" y="50" font-family="monospace" font-size="42" font-weight="700" fill="white" text-anchor="middle">A</text>
    <rect x="18" y="54" width="10" height="3" rx="1" fill="#AFA9EC"/>
  </g>
  <rect x="134" y="28" width="158" height="24" rx="12" fill="#EEEDFE" stroke="#AFA9EC" stroke-width="0.75"/>
  <text x="213" y="45" font-family="sans-serif" font-size="12" fill="#3C3489" text-anchor="middle">Terminal Emulator</text>
  <text x="134" y="82" font-family="sans-serif" font-size="36" font-weight="700" fill="#3C3489" letter-spacing="-1">Alacritty</text>
  <text x="52" y="110" font-family="sans-serif" font-size="14" fill="#888780">The fastest terminal emulator in existence, GPU-accelerated.</text>
  <line x1="52" y1="126" x2="628" y2="126" stroke="#D3D1C7" stroke-width="0.75"/>
  <rect x="52" y="142" width="136" height="88" rx="8" fill="#EEEDFE" stroke="#CECBF6" stroke-width="0.75"/>
  <text x="70" y="166" font-family="sans-serif" font-size="13" font-weight="500" fill="#26215C">GPU Rendering</text>
  <text x="70" y="184" font-family="sans-serif" font-size="11" fill="#3C3489">OpenGL accelerated.</text>
  <text x="70" y="200" font-family="sans-serif" font-size="11" fill="#3C3489">Smooth scrolling at</text>
  <text x="70" y="216" font-family="sans-serif" font-size="11" fill="#3C3489">any speed.</text>
  <rect x="200" y="142" width="136" height="88" rx="8" fill="#EEEDFE" stroke="#CECBF6" stroke-width="0.75"/>
  <text x="218" y="166" font-family="sans-serif" font-size="13" font-weight="500" fill="#26215C">Low Latency</text>
  <text x="218" y="184" font-family="sans-serif" font-size="11" fill="#3C3489">Near-zero input lag.</text>
  <text x="218" y="200" font-family="sans-serif" font-size="11" fill="#3C3489">Ideal for developers</text>
  <text x="218" y="216" font-family="sans-serif" font-size="11" fill="#3C3489">and power users.</text>
  <rect x="348" y="142" width="136" height="88" rx="8" fill="#EEEDFE" stroke="#CECBF6" stroke-width="0.75"/>
  <text x="366" y="166" font-family="sans-serif" font-size="13" font-weight="500" fill="#26215C">TOML Config</text>
  <text x="366" y="184" font-family="sans-serif" font-size="11" fill="#3C3489">Simple text-based</text>
  <text x="366" y="200" font-family="sans-serif" font-size="11" fill="#3C3489">configuration. Easy</text>
  <text x="366" y="216" font-family="sans-serif" font-size="11" fill="#3C3489">to customise.</text>
  <rect x="496" y="142" width="132" height="88" rx="8" fill="#EEEDFE" stroke="#CECBF6" stroke-width="0.75"/>
  <text x="514" y="166" font-family="sans-serif" font-size="13" font-weight="500" fill="#26215C">True Color</text>
  <text x="514" y="184" font-family="sans-serif" font-size="11" fill="#3C3489">Full 24-bit color</text>
  <text x="514" y="200" font-family="sans-serif" font-size="11" fill="#3C3489">support for rich</text>
  <text x="514" y="216" font-family="sans-serif" font-size="11" fill="#3C3489">terminal output.</text>
  <rect x="52" y="242" width="136" height="76" rx="8" fill="#EEEDFE" stroke="#CECBF6" stroke-width="0.75"/>
  <text x="70" y="266" font-family="sans-serif" font-size="13" font-weight="500" fill="#26215C">Vi Mode</text>
  <text x="70" y="284" font-family="sans-serif" font-size="11" fill="#3C3489">Keyboard-driven</text>
  <text x="70" y="300" font-family="sans-serif" font-size="11" fill="#3C3489">selection and copy.</text>
  <rect x="200" y="242" width="136" height="76" rx="8" fill="#EEEDFE" stroke="#CECBF6" stroke-width="0.75"/>
  <text x="218" y="266" font-family="sans-serif" font-size="13" font-weight="500" fill="#26215C">Wayland Native</text>
  <text x="218" y="284" font-family="sans-serif" font-size="11" fill="#3C3489">First-class Wayland</text>
  <text x="218" y="300" font-family="sans-serif" font-size="11" fill="#3C3489">and X11 support.</text>
  <rect x="348" y="242" width="136" height="76" rx="8" fill="#EEEDFE" stroke="#CECBF6" stroke-width="0.75"/>
  <text x="366" y="266" font-family="sans-serif" font-size="13" font-weight="500" fill="#26215C">Font Ligatures</text>
  <text x="366" y="284" font-family="sans-serif" font-size="11" fill="#3C3489">Supports programming</text>
  <text x="366" y="300" font-family="sans-serif" font-size="11" fill="#3C3489">font ligatures.</text>
  <rect x="496" y="242" width="132" height="76" rx="8" fill="#EEEDFE" stroke="#CECBF6" stroke-width="0.75"/>
  <text x="514" y="266" font-family="sans-serif" font-size="13" font-weight="500" fill="#26215C">Themeable</text>
  <text x="514" y="284" font-family="sans-serif" font-size="11" fill="#3C3489">Hundreds of color</text>
  <text x="514" y="300" font-family="sans-serif" font-size="11" fill="#3C3489">schemes available.</text>
  <rect x="0" y="366" width="680" height="16" fill="#534AB7" opacity="0.12"/>
  <text x="340" y="378" font-family="sans-serif" font-size="10" fill="#3C3489" text-anchor="middle" letter-spacing="1">MYLASTARCH RC1  ·  INCLUDED SOFTWARE</text>
</svg>
